<svg xmlns="http://www.w3.org/2000/svg"  viewBox="0 0 100 100" width="500px" height="500px"><circle cx="77" cy="13" r="1" fill="#f1bc19"/><circle cx="50" cy="50" r="37" fill="#e6edb7"/><circle cx="83" cy="15" r="4" fill="#f1bc19"/><circle cx="87" cy="24" r="2" fill="#88ae45"/><circle cx="81" cy="76" r="2" fill="#fbcd59"/><circle cx="15" cy="63" r="4" fill="#fbcd59"/><circle cx="25" cy="87" r="2" fill="#88ae45"/><circle cx="27.606" cy="30.819" r="2.5" fill="#fff"/><circle cx="79.5" cy="33.5" r="1.5" fill="#fff"/><path fill="#f9dac0" d="M42.999,56.857l-1.713,5.52c4.902,4.684,10.344,4.78,16.379-0.153l-2.499-5.782L42.999,56.857z"/><path fill="#f9dac0" stroke="#472b29" stroke-linecap="round" stroke-linejoin="round" stroke-miterlimit="10" stroke-width="1.4" d="M37.204,40.382c-0.716-0.203-1.54-0.222-2.122,0.309c-0.462,0.422-0.669,1.066-0.755,1.667c-0.141,0.99,0.083,2.009,0.502,2.907	c0.453,0.968,1.144,1.696,1.895,2.438c0.388,0.383,0.776,0.767,1.164,1.15"/><path fill="#f9dac0" stroke="#472b29" stroke-linecap="round" stroke-linejoin="round" stroke-miterlimit="10" stroke-width="1.4" d="M61.067,40.382c0.716-0.203,1.54-0.222,2.122,0.309c0.462,0.422,0.669,1.066,0.755,1.667c0.141,0.99-0.083,2.009-0.502,2.907	c-0.453,0.968-1.144,1.696-1.895,2.438c-0.388,0.383-0.776,0.767-1.164,1.15"/><path fill="#edece6" d="M42.484,56.844l-3.491,11.267c-0.731,2.36-3.533,3.353-5.584,1.974	c-3.708-2.492-5.949-4.165-7.601-6.06c0.462-1.971,1.447-3.202,3.726-3.387l0.535-0.609c0.493-0.562,1.235-0.838,1.975-0.735	l0.395,0.055c1.249-2.064,3.818-3.161,6.523-2.743c0.158-0.727,0.651-1.247,1.434-1.83"/><path fill="#f9dac0" stroke="#472b29" stroke-miterlimit="10" stroke-width="1.4" d="M49.074,25.995	c-6.382,0-11.555,5.255-11.555,11.736v7.79c0,6.234,4.148,11.707,10.15,13.393c0.785,0.221,1.616,0.224,2.403,0.011l0.285-0.077	c6.063-1.643,10.272-7.145,10.272-13.427v-7.69C60.629,31.249,55.455,25.995,49.074,25.995z"/><path fill="#edece6" d="M59.022,65.758c-1.608,2.414-5.457,4.114-9.951,4.114c-4.028,0-7.538-1.366-9.38-3.388l0.95-4.105	c1.97,2.227,5.014,3.656,8.43,3.656c3.635,0,6.849-1.618,8.796-4.094L59.022,65.758z"/><path fill="none" stroke="#472b29" stroke-linecap="round" stroke-linejoin="round" stroke-miterlimit="10" stroke-width="1.4" d="M42.484,56.844l-3.491,11.267c-0.731,2.36-3.533,3.353-5.584,1.974c-3.708-2.492-5.949-4.165-7.601-6.06	c0.462-1.971,1.447-3.202,3.726-3.387l0.535-0.609c0.493-0.562,1.235-0.838,1.975-0.735l0.395,0.055	c1.249-2.064,3.818-3.161,6.523-2.743c0.158-0.727,0.651-1.247,1.434-1.83"/><ellipse cx="35" cy="66.035" fill="#836f61" stroke="#472b29" stroke-miterlimit="10" rx="2.402" ry="2.055"/><path fill="none" stroke="#472b29" stroke-linecap="round" stroke-linejoin="round" stroke-miterlimit="10" stroke-width=".5" d="M39.203,58.79c-1.28,1.272-1.495,4.363-1.801,7.298"/><path fill="#edece6" d="M55.846,56.54l4.024,11.004c0.958,2.606,4.135,3.575,6.388,1.952	c1.965-1.416,4.088-2.878,5.245-3.462c1.663-0.839,4.603-0.393,4.603-0.393c-1.764-2.042-3.697-3.449-5.866-3.972	c-1.498-1.793-3.332-2.928-5.589-3.233c-1.255-1.313-2.688-2.172-4.388-2.356c-0.143-1.051-0.726-1.874-1.705-2.493"/><path fill="none" stroke="#472b29" stroke-linecap="round" stroke-linejoin="round" stroke-miterlimit="10" stroke-width=".5" d="M29.781,62.224c2.056,1.571,2.329,3.022,2.951,4.487"/><path fill="none" stroke="#472b29" stroke-linecap="round" stroke-linejoin="round" stroke-miterlimit="10" stroke-width="1.4" d="M55.734,56.014l4.136,11.529c0.958,2.606,4.135,3.575,6.388,1.952c1.965-1.416,4.088-2.878,5.245-3.462	c1.663-0.839,4.603-0.393,4.603-0.393c-1.764-2.042-3.697-3.449-5.866-3.972c-1.498-1.793-3.332-2.928-5.589-3.233	c-1.255-1.313-2.688-2.172-4.388-2.356c-0.143-1.051-0.726-1.874-1.705-2.493"/><ellipse cx="64.325" cy="65.757" fill="#836f61" stroke="#472b29" stroke-linecap="round" stroke-linejoin="round" stroke-miterlimit="10" rx="2.194" ry="2.471" transform="rotate(-15.856 64.337 65.768)"/><path fill="none" stroke="#472b29" stroke-linecap="round" stroke-linejoin="round" stroke-miterlimit="10" stroke-width=".5" d="M60.303,58.272c0.124,3.063,1.089,5.312,1.951,8.211"/><path fill="none" stroke="#472b29" stroke-linecap="round" stroke-linejoin="round" stroke-miterlimit="10" stroke-width=".5" d="M64.082,58.79c-0.237,1.832-0.174,3.061,0,4.066"/><path fill="none" stroke="#472b29" stroke-miterlimit="10" stroke-width="1.4" d="M59.022,65.758	c-1.608,2.414-5.457,4.114-9.951,4.114c-4.028,0-7.538-1.366-9.38-3.388"/><path fill="none" stroke="#472b29" stroke-miterlimit="10" d="M57.867,61.941c-1.946,2.476-5.16,4.094-8.796,4.094	c-3.416,0-6.46-1.428-8.43-3.656"/><polyline fill="none" stroke="#472b29" stroke-linecap="round" stroke-linejoin="round" stroke-miterlimit="10" stroke-width=".5" points="48.22,42.177 48.22,49.784 48.815,50.142"/><line x1="40.33" x2="46.581" y1="38.515" y2="38.022" fill="none" stroke="#472b29" stroke-linecap="round" stroke-linejoin="round" stroke-miterlimit="10" stroke-width=".5"/><line x1="57.813" x2="51.562" y1="38.515" y2="38.022" fill="none" stroke="#472b29" stroke-linecap="round" stroke-linejoin="round" stroke-miterlimit="10" stroke-width=".5"/><path fill="#fefdef" stroke="#472b29" stroke-linecap="round" stroke-linejoin="round" stroke-miterlimit="10" stroke-width=".5" d="M46.344,41.806c0,1.074-1.334,2.205-2.979,2.205s-2.979-1.062-2.979-2.205c0-0.606,1.334-1.097,2.979-1.097 S46.344,41.2,46.344,41.806z"/><line x1="43.654" x2="43.654" y1="41.979" y2="42.129" fill="#fefdef" stroke="#472b29" stroke-linecap="round" stroke-linejoin="round" stroke-miterlimit="10" stroke-width=".5"/><path fill="#fefdef" stroke="#472b29" stroke-linecap="round" stroke-linejoin="round" stroke-miterlimit="10" stroke-width=".5" d="M51.799,41.806c0,1.074,1.334,2.205,2.979,2.205s2.979-1.062,2.979-2.205c0-0.606-1.334-1.097-2.979-1.097 S51.799,41.2,51.799,41.806z"/><line x1="54.489" x2="54.489" y1="41.979" y2="42.129" fill="#fefdef" stroke="#472b29" stroke-linecap="round" stroke-linejoin="round" stroke-miterlimit="10" stroke-width=".5"/><path fill="none" stroke="#472b29" stroke-linecap="round" stroke-linejoin="round" stroke-miterlimit="10" stroke-width=".5" d="M48.22,53.818h0.66c0.349,0,0.695,0.077,1.011,0.225l0.243,0.114"/></svg>