<?xml version="1.0" encoding="iso-8859-1"?>
<!-- Generator: Adobe Illustrator 25.2.3, SVG Export Plug-In . SVG Version: 6.00 Build 0)  -->
<svg version="1.1" id="Layer_1" xmlns="http://www.w3.org/2000/svg" xmlns:xlink="http://www.w3.org/1999/xlink" x="0px" y="0px"
	 viewBox="0 0 48 48" style="enable-background:new 0 0 48 48;" xml:space="preserve">
<path style="fill:#D50000;" d="M37,13L29,3l5.5,10L25,22V5l1-2l-1.5,0.5L24,1l-0.5,2.5L22,3l1,2v17l-9.5-9L19,3l-8,10l11,10.5L11,34
	l12,12l1,1l1-1l12-12L26,23.5L37,13z M14.5,34l8.5-8.5v17.447L14.5,34z M33.5,34L25,42.947V25.5L33.5,34z"/>
</svg>