<svg height="100" width="100" xmlns="http://www.w3.org/2000/svg"><path d="m37.328125 0c-6.873948 0-12.5 5.6260522-12.5 12.5 0 6.873948 5.626052 12.5 12.5 12.5 1.315799 0 2.585653-.208263 3.779297-.589844l6.576172 13.976563c-8.124377 5.118853-12.36581 15.123337-9.753906 24.871093.467137 1.743383 1.13344 3.378992 1.958984 4.900391l-17.75 11.404297-.001953-.001953c-2.297647-2.780971-5.770123-4.560547-9.636719-4.560547-6.8739478 0-12.5 5.626052-12.5 12.5s5.6260522 12.5 12.5 12.5c6.873948 0 12.5-5.626052 12.5-12.5 0-1.577236-.308146-3.083613-.847656-4.476562l17.951172-11.533204c5.418732 6.746884 14.504664 10.054674 23.382812 7.675782 11.980105-3.21006 19.120216-15.576535 15.910156-27.556641-1.019459-3.804673-2.964571-7.117701-5.52539-9.769531l9.876953-12.808594c1.293818.61491 2.732782.96875 4.251953.96875 5.493236 0 10-4.506764 10-10s-4.506764-10-10-10-10 4.506764-10 10c0 2.538934.970913 4.859011 2.548828 6.628906l-9.707031 12.585938c-5.300684-3.826267-12.212497-5.334855-19.001953-3.515625-.892277.239084-1.753544.534365-2.589844.871093l-6.580078-13.986328c3.116409-2.279088 5.158203-5.950741 5.158203-10.083984 0-6.8739478-5.626052-12.5-12.5-12.5zm0 5c4.171747 0 7.5 3.3282528 7.5 7.5 0 4.171747-3.328253 7.5-7.5 7.5s-7.5-3.328253-7.5-7.5c0-4.1717472 3.328253-7.5 7.5-7.5zm52.671875 10c2.791035 0 5 2.208965 5 5s-2.208965 5-5 5-5-2.208965-5-5 2.208965-5 5-5zm-29.546875 22.445312c8.50406.336494 16.174765 6.123956 18.513672 14.761719a.60000005.60000005 0 0 1 .015625.050781.60000005.60000005 0 0 1 .011719.058594c2.818493 10.644198-3.511206 21.58374-14.154297 24.435547-10.662452 2.856996-21.637146-3.478173-24.494141-14.140625-2.856996-10.662453 3.480126-21.639099 14.142578-24.496094 1.995963-.534816 4.002369-.747574 5.964844-.669922zm-2.339844 1.25586c-.257861.02171-.514907.047478-.773437.080078-.02329.055389.097984.134457.482422.236328l.43164.027344c.479048-.19422.220929-.30566-.140625-.34375zm3.759766.0625c-.293387.154219-.759746.320279-1.234375.427734.260841.92865 1.34178 3.306153 2.638672 2.47461-.236867.122898 1.095122.882624.597656 1.203125.232269 2.024531-2.216309-.800091-3.005859-.542969-1.143129.522771.440052.734602.085937 1.140625-.8725 1.277037 1.515299 1.730957.90625.140625.492147 1.281687.927809 1.120739 1.978516.765625-2.331805 1.066852 1.72387.99606.701172 2.117187-1.253891.2151-1.817302.85447-.804688 1.867188-.02758 1.196324 1.081752.951891 1.560547 1.234375l.400391-.148438.255859-.105468c-.01061.0015-.02061.006712-.03125.007812 1.399586-.877809-.206226-3.718937 1.472656-3.955078-.024191 1.271611 2.15589 1.891326.689453.449219-.919654-.683817 2.394569.027883 1.22461.798828 1.690586 1.314118-.043506-1.638881 1.11914-1.021484.886807.891254 1.384874-.082846 1.539063-.166016.370196-.218877 1.021266-.205517 1.205078-.154297 1.924018 1.052605-1.222533 1.244704-.966797 2.375.353921.672393-1.689842.247854-2.011719.125-1.359562-1.916029-2.587976.688564-3.818359 1.384766-.035735.047362-.894477 1.185244-.992188 1.332031.189549 1.946992-1.00585 3.48267-1.05664 5.517578.180462 1.119857.945852 2.529931 1.109375 3.746094.756453 1.413381 2.414293 1.893917 3.855469 2.298828 1.09726.351934 1.76234-1.064364 2.765625-1.347656.533917-1.531679 2.199873-.958512 2.970703-1.267578-.5306 1.691218 1.368254 2.378284 1.333984 4.0625-.477133 1.058706-.368291 2.26795-.470703 3.40625 2.447338-4.183067 3.28831-9.305458 1.933594-14.361329-2.051831-7.657535-8.535638-12.92814-15.951172-13.804687zm-6.083985.40625c-.374376.026433-.744058.077245-1.113281.140625-7.898222 2.173109-13.231323 9.069845-13.767578 16.816406.132325-.25919.321062-.421.580078-.40625.887072-.467909.970594 1.099823 1.294922 1.998047.793858.114474-.344264-2.795386 1.117188-3.261719.703357-1.404028 1.613885-2.682076 2.628906-3.791015.569234.212456 1.584274-.103684 2.1875-1.076172-.946169.060092-1.194262-.608169-.066406-1.199219 1.689475-1.33224-.619686 1.130144 1.005859.960937 1.825688.045041-.136716-1.540125.458984-2.52539-.99292-.346759-.240982-2.932113-1.445312-1.550781.410693-.499458-.562257-.969906-.179688-1.357422.328287.474947 1.465733.944405 1.476563-.357422.987438-.091754.488124-1.422602.800781-2.294922 2.167822-1.485044.8086 1.365447 1.027344 2.541016 1.371812 2.0386 1.836724-1.41952 3.185547-1.863282 1.679178-.38935 1.062606-1.928692.808593-2.773437zm6.88086.601562c.409148.393961-.316593.071623-.136719.007813.025675-.009142.068019-.012013.136719-.007813zm.05664.5625c.0749-.01294.263746.006672.625.082032.860383.638697-.949564-.025972-.625-.082032zm1.533204.53125c.2655-.072341 1.13392.191573 1.11914.736328-.562555.772754-.312335.373034-.625-.232421-.594756-.296578-.653437-.460477-.49414-.503907zm-6.837891.652344c-.20775-.003836-.433242.021236-.621094.080078-.341556.106989-.557897.322444-.316406.660156.254019.140172.559993.10751.828125.03711 1.196119-.485186.732626-.765837.109375-.777344zm3.529297.230469c-.026341-.000157-.012969.054665.082031.210937.423971.282746-.002961-.210487-.082031-.210937zm-1.242188.033203c-.0185.014827-.026445.057561-.009765.144531.393536.258508.090085-.208801.009765-.144531zm9.966797.787109c.066009-.026176.227504.033613.521485.232422.150039-.512439 1.807333.140217.65625.646485.015554.963946-1.46377-.765491-1.177735-.878907zm-20.701172.341797c.131491.075935-.17217.715698-.724609.966797-.684176.970739-.199523-.224401.132812-.486328.242543-.295458.409033-.436763.507813-.476563.03704-.014926.0652-.014754.083984-.003906zm-1.935547 1.257813c.690752-.132466.392009 1.642198-.339843 1.921875-.413535.070867-.51924.780761-.775391 1.072265.006865.147408-.556812-2.184875.472656-2.55664.271579-.275424.483177-.40693.642578-.4375zm20.894532.425781c.226062-.022032 1.208372.235816 1.638672.482422.333029.410102-.781212-.182423-.947266-.080078-.605105-.241174-.785719-.358208-.730469-.392578.00789-.0049.022103-.008066.039063-.009766zm2.800781.183594c.029558-.023211.139223.005425.386719.138672.161702.462688-.475409-.069032-.386719-.138672zm1.394531 1.023437c-.034161-.008398-.068052-.007151-.099609.00586-.084151.0347-.149078.156474-.142578.425781.717193.132702.481319-.372854.242187-.431641zm-5.125.935547c-.076706.03401-.162069.206076-.230468.621094.613625.420664.460706-.723079.230468-.621094zm-19.345703 1.582031c.047849-.01222.13536.006695.279297.083985-.200153.25615-.422816-.047395-.279297-.083985zm-3.708984.50586c.054099-.007907.144862.03451.289062.162109-.045617.856271-.523488-.127869-.289062-.162109zm.283203.951172c.02361-.01231.05456-.003704.09375.035156-.07598 1.157694-.259303.051264-.09375-.035156zm13.966797.886718c-.096407.016887-.217149.092278-.341797.267579.701131.153409.631019-.318239.341797-.267579zm.929687.0625c-.042205-.0042-.11211.043362-.21289.1875.22394.299722.33956-.17492.21289-.1875zm-15.044922.269532c.046418-.002945.09308.033196.13086.134765-.530453.627782-.332051-.122005-.13086-.134765zm18.691407.86914c-.015958-.007799-.033964-.00825-.052735.001953-.034664.018842-.073838.073062-.111328.183594.299881.287712.275768-.130954.164063-.185547zm1.564453 1.095703c-.07982.021411-.127445.190557-.046875.638672.551815-.014282.222476-.685782.046875-.638672zm-.804688.638672c-.144918.001613-.298955.02187-.421875.0625-.223485.073876-.342959.215902-.109375.441406l.076172.013672.384766-.103515c.85217-.259013.505066-.418901.070312-.414063zm-20.15039 3.626953c-.03519.009841-.033733.103857.054687.34961.497111.347853.050906-.37915-.054687-.34961zm-.039063.69336c-.03695.003514-.061998.122322-.048828.453125.378529.561677.159722-.463685.048828-.453125zm-.992187.615234c-.770983.123475.962987 1.077146 1.173828 1.646485 1.489249.002382.020813.850944 1.322265 1.009765 1.939263.162716.465212-.966123-.365234-1.064453.167763-.55117-.967458-.620571-1.636719-1.589844-.224191-.01981-.383992-.019593-.49414-.001953zm-.789063.195313c-.083491-.020771-.216098.147833-.431641.621093-.073973-.0752-.140548-.187942-.199218-.324218.05966.690511.156182 1.384543.294922 2.078125.556033 1.045312 1.068325 2.294908 1.808593 3.146484.637816 1.116107.466454-.458365.798829.466797.746748 1.715616.150964 3.84837 1.951171 5.203125 1.100775 1.557639 2.825771 2.394295 4.208985 3.636719 2.165199 1.298246 4.586402 2.165162 7.126953 2.511718.310312-.4825.399396-1.103344.908203-1.410156 2.666367-.06578.747084-2.870854 2.259766-4.027344.579662-2.39326-3.146626-1.751714-4.648438-2.164062-2.284391.256579-2.794906-2.470222-4.943359-2.513672-1.702528.177089-1.739203-2.335287-2.902344-1.888672-.981604.468754-1.773757-.843668-2.322266-.587891-.099735.183886-.97653-.759534-1.277343.621094-1.87248.082426-1.179284-2.278604-2.230469-3.214844-.336732-.328015-.15187-2.091946-.402344-2.154296zm2.412109.02539c-.01176.00016-.021996.003919-.029296.011719-.03342.036933-.002384.161869.183593.40625l.103516.035156c.003413-.275955-.175533-.453968-.257813-.453125zm18.841797.642578c-.044134.012574-.093991.059181-.144531.16211.420813.385887.335792-.21667.144531-.16211zm-1.101562.039063c-.099055.015361-.079257.090944.255859.273437.751749-.049818-.03793-.307237-.255859-.273437zm1.154297.5c-.024004-.005013-.052674-.000197-.087891.015625-.06502.029208-.149144.099873-.251953.232422.400535.251936.50787-.212957.339844-.248047zm-.56836.222656c-.03725.00587-.077565.07452-.109375.255859.300212.270002.221086-.273489.109375-.255859zm-19.015625.324219c-.107444.005935-.089766.126951.263672.472656.81253.059094-.027298-.485726-.263672-.472656zm31.271485.25c-.037251.005871-.079518.072567-.111328.253906.300213.270002.223042-.271536.111328-.253906zm-28.320313.146484c-.039659-.007009-.077679-.00394-.111328.009766-.08974.036549-.145799.156349-.099609.417969.826462.105044.488554-.378672.210937-.427735zm1.623047 1.054688c-.041501-.00471-.036594.174279.074219.689453l.089844.275391c.517442.724405-.039458-.950744-.164063-.964844zm-35.361328 18.066406c4.171747 0 7.5 3.328253 7.5 7.5s-3.328253 7.5-7.5 7.5c-4.1717472 0-7.5-3.328253-7.5-7.5s3.3282528-7.5 7.5-7.5z" fill="#000080"/></svg>